HIERARCHY
ROOT Hips
{
	OFFSET 0.000000 0.000000 0.000000
	CHANNELS 6 Xposition Yposition Zposition Zrotation Yrotation Xrotation 
	JOINT LHipJoint
	{
		OFFSET 0.000000 0.000000 0.000000
		CHANNELS 3 Zrotation Yrotation Xrotation
		JOINT LeftUpLeg
		{
			OFFSET 1.363060 -1.794630 0.839290
			CHANNELS 3 Zrotation Yrotation Xrotation
			JOINT LeftLeg
			{
				OFFSET 2.448110 -6.726130 0.000000
				CHANNELS 3 Zrotation Yrotation Xrotation
				JOINT LeftFoot
				{
					OFFSET 2.562200 -7.039590 0.000000
					CHANNELS 3 Zrotation Yrotation Xrotation
					JOINT LeftToeBase
					{
						OFFSET 0.157640 -0.433110 2.322550
						CHANNELS 3 Zrotation Yrotation Xrotation
						End Site
						{
							OFFSET 0.000000 0.000000 0.000000
						}
					}
				}
			}
		}
	}
	JOINT RHipJoint
	{
		OFFSET 0.000000 0.000000 0.000000
		CHANNELS 3 Zrotation Yrotation Xrotation
		JOINT RightUpLeg
		{
			OFFSET -1.305520 -1.794630 0.839290
			CHANNELS 3 Zrotation Yrotation Xrotation
			JOINT RightLeg
			{
				OFFSET -2.542530 -6.985550 0.000000
				CHANNELS 3 Zrotation Yrotation Xrotation
				JOINT RightFoot
				{
					OFFSET -2.568260 -7.056230 0.000000
					CHANNELS 3 Zrotation Yrotation Xrotation
					JOINT RightToeBase
					{
						OFFSET -0.164730 -0.452590 2.363150
						CHANNELS 3 Zrotation Yrotation Xrotation
						End Site
						{
							OFFSET 0.000000 0.000000 0.000000
						}
					}
				}
			}
		}
	}
	JOINT LowerBack
	{
		OFFSET 0.000000 0.000000 0.000000
		CHANNELS 3 Zrotation Yrotation Xrotation
		JOINT Spine
		{
			OFFSET 0.028270 2.035590 -0.193380
			CHANNELS 3 Zrotation Yrotation Xrotation
			JOINT Spine1
			{
				OFFSET 0.056720 2.048850 -0.042750
				CHANNELS 3 Zrotation Yrotation Xrotation
				JOINT Neck
				{
					OFFSET 0.000000 0.000000 0.000000
					CHANNELS 3 Zrotation Yrotation Xrotation
					JOINT Neck1
					{
						OFFSET -0.054170 1.746240 0.172020
						CHANNELS 3 Zrotation Yrotation Xrotation
						JOINT Head
						{
							OFFSET 0.104070 1.761360 -0.123970
							CHANNELS 3 Zrotation Yrotation Xrotation
							End Site
							{
								OFFSET 0.000000 0.000000 0.000000
							}
						}
					}
				}
				JOINT LeftShoulder
				{
					OFFSET 0.000000 0.000000 0.000000
					CHANNELS 3 Zrotation Yrotation Xrotation
					JOINT LeftArm
					{
						OFFSET 3.362410 1.200890 -0.311210
						CHANNELS 3 Zrotation Yrotation Xrotation
						JOINT LeftForeArm
						{
							OFFSET 4.983000 -0.000000 -0.000000
							CHANNELS 3 Zrotation Yrotation Xrotation
							JOINT LeftHand
							{
								OFFSET 3.483560 -0.000000 -0.000000
								CHANNELS 3 Zrotation Yrotation Xrotation
								JOINT LeftFingerBase
								{
									OFFSET 0.000000 0.000000 0.000000
									CHANNELS 3 Zrotation Yrotation Xrotation
									JOINT LeftHandIndex1
									{
										OFFSET 0.715260 -0.000000 -0.000000
										CHANNELS 3 Zrotation Yrotation Xrotation
										End Site
										{
											OFFSET 0.000000 0.000000 0.000000
										}
									}
								}
								JOINT LThumb
								{
									OFFSET 0.000000 0.000000 0.000000
									CHANNELS 3 Zrotation Yrotation Xrotation
									End Site
									{
										OFFSET 0.000000 0.000000 0.000000
									}
								}
							}
						}
					}
				}
				JOINT RightShoulder
				{
					OFFSET 0.000000 0.000000 0.000000
					CHANNELS 3 Zrotation Yrotation Xrotation
					JOINT RightArm
					{
						OFFSET -3.136600 1.374050 -0.404650
						CHANNELS 3 Zrotation Yrotation Xrotation
						JOINT RightForeArm
						{
							OFFSET -5.241900 -0.000000 -0.000000
							CHANNELS 3 Zrotation Yrotation Xrotation
							JOINT RightHand
							{
								OFFSET -3.444170 -0.000000 -0.000000
								CHANNELS 3 Zrotation Yrotation Xrotation
								JOINT RightFingerBase
								{
									OFFSET 0.000000 0.000000 0.000000
									CHANNELS 3 Zrotation Yrotation Xrotation
									JOINT RightHandIndex1
									{
										OFFSET -0.622530 -0.000000 -0.000000
										CHANNELS 3 Zrotation Yrotation Xrotation
										End Site
										{
											OFFSET 0.000000 0.000000 0.000000
										}
									}
								}
								JOINT RThumb
								{
									OFFSET 0.000000 0.000000 0.000000
									CHANNELS 3 Zrotation Yrotation Xrotation
									End Site
									{
										OFFSET 0.000000 0.000000 0.000000
									}
								}
							}
						}
					}
				}
			}
		}
	}
}
MOTION
Frames: 11
Frame Time: 0.016667
-2.211677 17.872278 24.586996 8.050076 12.023141 4.574786 16.811296 22.994126 -18.055038 -56.612107 0.691207 6.401296 13.674263 -3.045342 3.353199 3.262286 17.495816 59.324761 0.000000 0.000000 0.000000 10.875583 -23.280957 21.744717 -4.734842 8.402654 -20.100420 7.604376 -17.058728 38.310927 22.344734 -35.903764 12.768651 0.000000 0.000000 0.000000 -18.736224 5.092236 5.116607 -1.868640 3.559228 4.025934 25.217262 0.189016 0.660903 17.381799 -2.006245 -9.521448 -20.144602 -2.126125 -2.878467 0.000000 0.000000 0.000000 28.296737 4.411044 2.917907 -99.632274 -18.685604 2.715326 -47.687429 -8.756940 -0.054040 -0.359251 -2.607686 -0.027024 -0.358619 -2.608078 -0.000000 0.000000 0.000000 0.000000 0.000000 0.000000 0.000000 -20.016775 -5.243295 2.679037 83.234016 18.461728 1.820007 -43.512223 -23.945494 1.028521 -0.932214 9.059996 0.514968 -0.900435 9.082478 0.000000 0.000000 0.000000 0.000000 0.000000 0.000000 0.000000 
-2.315899 17.906136 24.914252 8.128763 13.892735 6.638774 16.858214 25.562825 -14.142890 -57.611513 -2.262785 4.392108 13.620137 -4.962750 2.680761 2.635045 15.717131 59.500938 0.000000 0.000000 0.000000 13.862454 -25.215671 23.414558 -7.785197 8.359770 -23.735143 9.133374 -17.007382 36.277829 24.310475 -38.167973 12.151095 0.000000 0.000000 0.000000 -21.257525 4.033928 2.240868 1.057388 3.404131 5.489471 24.851155 0.528310 1.291572 18.782360 -2.040435 -8.164727 -20.606801 -2.341917 -4.032915 0.000000 0.000000 0.000000 28.747622 4.463546 2.028748 -100.402914 -19.532270 3.368914 -50.884742 -8.313451 -0.057602 -0.546836 -2.650018 -0.028813 -0.545968 -2.650506 -0.000000 0.000000 0.000000 0.000000 0.000000 0.000000 0.000000 -22.144539 -4.864980 1.554901 81.960602 18.846155 3.938476 -34.950840 -32.355909 0.939246 -1.749422 9.174660 0.470034 -1.725711 9.192158 0.000000 0.000000 0.000000 0.000000 0.000000 0.000000 0.000000 
-2.378437 17.944273 25.223695 8.132343 15.332419 8.634182 16.224449 27.463923 -10.015257 -57.483680 -5.335433 2.070890 13.489135 -6.946102 1.385712 1.935361 13.926821 59.569914 0.000000 0.000000 0.000000 16.475720 -26.550784 24.313269 -10.110284 8.080225 -26.166125 10.384772 -16.736674 33.946486 25.916186 -40.281593 11.962686 0.000000 0.000000 0.000000 -22.846092 2.942071 -0.590766 3.538910 3.169568 7.499446 24.293717 0.811970 1.811029 20.226593 -2.299225 -6.047261 -20.910288 -2.603351 -5.662065 0.000000 0.000000 0.000000 28.496815 5.247194 0.978413 -100.966049 -20.163624 4.145824 -53.692605 -7.790122 -0.060341 -0.694848 -2.623828 -0.030193 -0.693766 -2.624448 -0.000000 0.000000 0.000000 0.000000 0.000000 0.000000 0.000000 -23.836112 -4.852150 0.542521 80.396989 19.198565 5.357710 -26.214368 -37.794847 0.821409 -2.416700 8.997079 0.410834 -2.401270 9.009160 0.000000 0.000000 0.000000 0.000000 0.000000 0.000000 0.000000 
-2.412973 17.990286 25.512238 7.875768 16.206102 10.331443 15.104579 28.704090 -5.781405 -56.113761 -8.576483 -0.713304 13.226949 -8.866243 -0.205133 1.239006 12.254262 59.459807 0.000000 0.000000 0.000000 18.643421 -27.340876 24.614238 -11.565314 7.763115 -27.439326 11.187637 -16.198874 31.652674 27.017851 -42.271678 12.388091 0.000000 0.000000 0.000000 -23.841716 1.950446 -3.769489 5.414132 2.965377 9.975998 24.176144 1.058228 2.053718 21.765162 -2.616366 -4.766791 -21.658841 -2.977442 -7.254282 0.000000 0.000000 0.000000 27.954939 5.856615 0.177343 -101.838768 -20.545458 4.776932 -55.753852 -7.442001 -0.060949 -0.812880 -2.571394 -0.030507 -0.811629 -2.572150 -0.000000 0.000000 0.000000 0.000000 0.000000 0.000000 0.000000 -24.911313 -4.736054 0.046479 78.640730 19.358149 5.736750 -19.626921 -40.406168 0.723484 -2.820488 8.675551 0.361694 -2.810990 8.683784 0.000000 0.000000 0.000000 0.000000 0.000000 0.000000 0.000000 
-2.417794 18.092647 25.779481 7.056806 16.707366 11.582977 12.568379 28.625593 -1.094680 -51.935972 -12.600576 -5.181848 12.725027 -10.555304 -2.047661 0.513125 10.907954 59.074316 0.000000 0.000000 0.000000 20.943922 -27.258852 24.348362 -12.330594 7.008382 -27.477911 11.500487 -15.535605 29.071227 26.931989 -44.324104 14.358278 0.000000 0.000000 0.000000 -24.324766 1.337042 -8.475004 6.932319 2.797367 15.922969 25.082411 1.544436 0.531125 24.293002 -3.226182 -4.771242 -23.967568 -3.851355 -9.495720 0.000000 0.000000 0.000000 26.635321 6.690636 -0.568214 -103.426379 -20.598072 5.354377 -56.548078 -7.119418 -0.054746 -0.915572 -2.491155 -0.027412 -0.914316 -2.491963 -0.000000 0.000000 0.000000 0.000000 0.000000 0.000000 0.000000 -25.275883 -4.754623 -0.422636 76.322589 19.467736 5.433590 -15.848035 -41.226108 0.670543 -2.943577 8.348847 0.335144 -2.937371 8.355398 0.000000 0.000000 0.000000 0.000000 0.000000 0.000000 0.000000 
-2.431167 18.188679 26.026709 6.035896 16.859376 12.504486 10.144949 27.882061 2.891471 -46.437213 -15.881747 -9.777633 11.460130 -11.894618 -4.282983 0.168889 10.120902 58.679070 0.000000 0.000000 0.000000 23.182663 -26.798320 24.104354 -12.949581 6.391798 -27.228797 11.634806 -14.886263 26.831895 27.028357 -46.420442 15.966299 0.000000 0.000000 0.000000 -24.941040 0.816833 -12.884501 9.003509 2.596040 21.667664 25.427968 2.202183 -1.196908 26.066668 -3.558827 -5.541867 -25.486641 -4.612829 -11.150614 0.000000 0.000000 0.000000 25.493516 7.261497 -1.112956 -104.788948 -20.568585 5.797614 -57.326121 -6.979041 -0.047936 -1.002766 -2.391513 -0.024013 -1.001499 -2.392378 -0.000000 0.000000 0.000000 0.000000 0.000000 0.000000 0.000000 -25.626488 -4.716908 -0.682030 74.348216 19.344390 4.997902 -12.378852 -41.691920 0.621939 -3.047309 8.017046 0.310786 -3.043854 8.022141 0.000000 0.000000 0.000000 0.000000 0.000000 0.000000 0.000000 
-2.453977 18.277700 26.252981 4.776582 16.674091 12.959142 7.740759 26.495474 5.825885 -39.916442 -18.138806 -14.153375 10.123781 -12.715654 -6.323677 0.106647 9.839266 57.990467 0.000000 0.000000 0.000000 25.339108 -26.144697 24.100558 -13.504481 5.928717 -26.832907 11.600976 -14.246655 24.994775 27.213096 -48.440581 17.277511 0.000000 0.000000 0.000000 -25.671403 0.449764 -16.745230 11.621162 2.311632 26.995449 25.208727 3.031193 -3.196338 27.021106 -3.489423 -7.241224 -26.244969 -5.151658 -11.944940 0.000000 0.000000 0.000000 24.548509 7.464674 -1.394494 -105.946337 -20.441647 6.165472 -58.077888 -7.071544 -0.040061 -1.071898 -2.271190 -0.020081 -1.070620 -2.272113 -0.000000 0.000000 0.000000 0.000000 0.000000 0.000000 0.000000 -25.926323 -4.663102 -0.689963 72.692115 18.919354 4.475556 -9.248058 -41.876865 0.578971 -3.126622 7.686752 0.289268 -3.125337 7.690659 0.000000 0.000000 0.000000 0.000000 0.000000 0.000000 0.000000 
-2.465336 18.367692 26.450797 3.368164 16.146797 12.762204 5.190199 24.655605 7.513651 -33.371616 -19.416589 -17.943491 9.898173 -12.701145 -6.780492 -0.084245 9.625668 56.373537 0.000000 0.000000 0.000000 26.928697 -25.641258 24.512752 -13.793131 5.698676 -26.242086 11.430125 -13.517849 23.548322 26.963960 -50.127914 18.835814 0.000000 0.000000 0.000000 -26.018755 0.530884 -20.124366 14.313556 1.889128 32.763602 24.419711 4.068905 -5.953789 27.224495 -3.103772 -9.913325 -26.466544 -5.480578 -11.941495 0.000000 0.000000 0.000000 23.586052 7.562003 -1.468592 -106.626751 -20.168048 6.575406 -58.883400 -7.383560 -0.030393 -1.121359 -2.148524 -0.015252 -1.120085 -2.149490 -0.000000 0.000000 0.000000 0.000000 0.000000 0.000000 0.000000 -26.105507 -4.726099 -0.587195 71.368709 18.240311 3.922936 -6.433085 -42.178329 0.543157 -3.182000 7.370444 0.271347 -3.182401 7.373415 0.000000 0.000000 0.000000 0.000000 0.000000 0.000000 0.000000 
-2.464438 18.458698 26.618338 2.020134 15.781202 12.300615 2.710747 22.612433 8.576810 -26.993459 -19.615785 -20.845299 9.559794 -12.383262 -7.145389 -0.172272 9.655878 54.808574 0.000000 0.000000 0.000000 28.186094 -25.202977 25.041425 -13.873301 5.545150 -25.571856 11.298884 -12.800436 22.361359 26.592194 -51.645566 20.300293 0.000000 0.000000 0.000000 -26.080904 0.961276 -22.999107 17.028596 1.167819 38.894039 22.967248 5.185438 -9.815742 26.430270 -2.297123 -13.898226 -26.083479 -5.462040 -10.628392 0.000000 0.000000 0.000000 22.633974 7.431597 -1.303944 -106.748245 -19.773170 6.948718 -59.836968 -7.814860 -0.018131 -1.162173 -2.019154 -0.009121 -1.160971 -2.020120 -0.000000 0.000000 0.000000 0.000000 0.000000 0.000000 0.000000 -26.115864 -5.087662 -0.339241 70.444070 17.208007 3.419062 -3.946017 -42.625519 0.514661 -3.211979 7.070153 0.257103 -3.213646 7.072432 0.000000 0.000000 0.000000 0.000000 0.000000 0.000000 0.000000 
-2.457803 18.553510 26.775992 0.959396 15.466735 11.798031 0.670998 20.900643 9.299815 -21.723497 -19.212755 -22.855791 8.984233 -11.814299 -7.137877 -0.175604 9.890862 53.530022 0.000000 0.000000 0.000000 29.114190 -24.810997 25.620019 -13.880013 5.430519 -24.914994 11.083308 -12.076796 21.349474 25.861278 -52.914458 22.037746 0.000000 0.000000 0.000000 -26.041636 1.419452 -25.342683 19.274317 0.268973 44.314944 21.280127 6.038343 -13.706199 24.976237 -1.422178 -18.109656 -25.284116 -5.207806 -8.663806 0.000000 0.000000 0.000000 21.838238 7.213718 -0.939852 -106.275404 -19.307387 7.252886 -60.819164 -8.259082 -0.005755 -1.187557 -1.911711 -0.002930 -1.186474 -1.912643 -0.000000 0.000000 0.000000 0.000000 0.000000 0.000000 0.000000 -25.951540 -5.650234 0.058046 69.890979 15.941158 2.962190 -1.523749 -42.857484 0.484092 -3.224074 6.774620 0.241829 -3.226736 6.776233 0.000000 0.000000 0.000000 0.000000 0.000000 0.000000 0.000000 
-2.444996 18.652647 26.923346 0.230447 15.187478 11.305588 -0.883731 19.589137 9.757881 -17.729450 -18.548155 -24.146982 8.142899 -11.038850 -6.699065 -0.136893 10.275258 52.567163 0.000000 0.000000 0.000000 29.702231 -24.398597 26.208942 -13.817336 5.389357 -24.267758 10.748053 -11.315085 20.541121 24.761070 -53.889191 24.114920 0.000000 0.000000 0.000000 -25.907356 1.818198 -27.181964 20.898969 -0.702906 48.858232 19.487430 6.580557 -17.378996 23.054523 -0.626478 -22.251406 -24.181355 -4.788088 -6.272666 0.000000 0.000000 0.000000 21.190924 6.905386 -0.364341 -105.191351 -18.777314 7.423886 -61.693032 -8.751027 0.006295 -1.205231 -1.839350 0.003100 -1.204309 -1.840217 -0.000000 0.000000 0.000000 0.000000 0.000000 0.000000 0.000000 -25.631409 -6.271171 0.468220 69.623457 14.756045 2.669997 0.216248 -42.443101 0.464485 -3.241246 6.597583 0.232034 -3.244378 6.598776 0.000000 0.000000 0.000000 0.000000 0.000000 0.000000 0.000000 
